<?xml version="1.0" encoding="UTF-8" standalone="no"?>
<!-- Created with Inkscape (http://www.inkscape.org/) -->

<svg
   version="1.1"
   id="svg777"
   xml:space="preserve"
   width="32"
   height="32"
   viewBox="0 0 32 32"
   xmlns="http://www.w3.org/2000/svg"
   xmlns:svg="http://www.w3.org/2000/svg"><defs
     id="defs781"><clipPath
       clipPathUnits="userSpaceOnUse"
       id="clipPath791"><path
         d="M 0,24 H 24 V 0 H 0 Z"
         id="path789" /></clipPath></defs><g
     id="g783"
     transform="matrix(1.3333333,0,0,-1.3333333,0,32)"><g
       id="g785"><g
         id="g787"
         clip-path="url(#clipPath791)"><g
           id="g793"
           transform="translate(11.3589,13)"><path
             d="m 0,0 -2.897,10 h 2.351 C 0.186,10 0.859,9.601 1.209,8.958 L 5.718,0"
             style="fill:none;stroke:#000000;stroke-width:2;stroke-linecap:butt;stroke-linejoin:miter;stroke-miterlimit:10;stroke-dasharray:none;stroke-opacity:1"
             id="path795" /></g><g
           id="g797"
           transform="translate(21,13)"><path
             d="m 0,0 h -15.013 l -2.589,2.589 C -17.865,2.853 -18.222,3 -18.594,3 -19.672,3 -20.348,1.836 -19.813,0.9 l 2.8,-4.9 h 7.474 l -3,-8 h 2.351 c 0.732,0 1.406,0.399 1.756,1.042 L -4.091,-4 H 2 v 2 C 2,-0.896 1.104,0 0,0 Z"
             style="fill:none;stroke:#000000;stroke-width:2;stroke-linecap:butt;stroke-linejoin:miter;stroke-miterlimit:10;stroke-dasharray:none;stroke-opacity:1"
             id="path799" /></g></g></g></g></svg>
